<svg width="1280" height="760" viewBox="0 0 1280 760" fill="none" xmlns="http://www.w3.org/2000/svg" role="img" aria-labelledby="title desc">
  <title id="title">OpenCouncil system architecture</title>
  <desc id="desc">A clean three-column architecture diagram for OpenCouncil showing browser, gateway, frontend, backend, council engine, local data, and local CLI providers.</desc>

  <defs>
    <marker id="arrow" viewBox="0 0 12 12" refX="10" refY="6" markerWidth="10" markerHeight="10" orient="auto">
      <path d="M2 2L10 6L2 10" stroke="#8C6A51" stroke-width="2" stroke-linecap="round" stroke-linejoin="round"/>
    </marker>
    <marker id="arrow-red" viewBox="0 0 12 12" refX="10" refY="6" markerWidth="10" markerHeight="10" orient="auto">
      <path d="M2 2L10 6L2 10" stroke="#C43A2F" stroke-width="2" stroke-linecap="round" stroke-linejoin="round"/>
    </marker>
    <marker id="arrow-red-start" viewBox="0 0 12 12" refX="2" refY="6" markerWidth="10" markerHeight="10" orient="auto">
      <path d="M10 2L2 6L10 10" stroke="#C43A2F" stroke-width="2" stroke-linecap="round" stroke-linejoin="round"/>
    </marker>
    <linearGradient id="gateway-fill" x1="500" y1="154" x2="780" y2="296" gradientUnits="userSpaceOnUse">
      <stop stop-color="#FFF9F3"/>
      <stop offset="1" stop-color="#F7ECE1"/>
    </linearGradient>
    <linearGradient id="engine-fill" x1="475" y1="520" x2="805" y2="650" gradientUnits="userSpaceOnUse">
      <stop stop-color="#201914"/>
      <stop offset="1" stop-color="#3A211E"/>
    </linearGradient>
    <style>
      .label { font-family: Manrope, Inter, -apple-system, BlinkMacSystemFont, "Segoe UI", sans-serif; fill: #1A1410; }
      .muted { fill: #6E5A4B; }
      .title { font-size: 26px; font-weight: 800; }
      .section { font-size: 22px; font-weight: 800; }
      .body { font-size: 17px; }
      .tiny { font-size: 15px; }
      .chip { font-size: 14px; font-weight: 800; }
      .mono { font-family: "SFMono-Regular", Consolas, "Liberation Mono", monospace; }
      .inverse { fill: #FFFFFF; }
      .light { fill: #FFF8F2; }
      .light-muted { fill: #EBD8CA; }
      .accent { fill: #C43A2F; }
      .warm { fill: #8F5E46; }
    </style>
  </defs>

  <rect width="1280" height="760" rx="36" fill="#FAF6F1"/>
  <path d="M126 112C214 47 340 43 452 87C556 128 632 87 748 69C874 49 1001 70 1102 134C1194 193 1211 300 1172 396C1134 489 1199 579 1104 652C1007 727 848 694 734 705C591 719 470 732 354 681C236 629 148 548 111 439C72 324 28 185 126 112Z" fill="#C43A2F" opacity="0.045"/>

  <text x="72" y="50" class="label title">OpenCouncil System Architecture</text>
  <text x="72" y="80" class="label muted body">Local-first agent council with explicit routing, streaming rooms, local CLI providers, and persistent context.</text>

  <rect x="56" y="112" width="1168" height="584" rx="28" fill="#FFFDF9" stroke="#E4D2C2" stroke-width="1.4"/>
  <text x="88" y="150" class="label chip warm">LOCAL RUNTIME BOUNDARY</text>

  <g>
    <rect x="100" y="174" width="270" height="108" rx="20" fill="#FFFFFF" stroke="#E4D2C2" stroke-width="1.4"/>
    <circle cx="136" cy="228" r="22" fill="#1A1410"/>
    <path d="M145 211A17 17 0 1 0 145 245" stroke="#FAF6F1" stroke-width="9" stroke-linecap="round"/>
    <circle cx="156" cy="228" r="5" fill="#C43A2F"/>
    <text x="182" y="220" class="label section">Browser</text>
    <text x="182" y="249" class="label muted tiny">README viewer / app user</text>
  </g>

  <g>
    <rect x="505" y="160" width="270" height="136" rx="22" fill="url(#gateway-fill)" stroke="#D8BFA9" stroke-width="1.4"/>
    <rect x="533" y="190" width="86" height="30" rx="15" fill="#C43A2F"/>
    <text x="554" y="211" class="label chip inverse">:7000</text>
    <text x="533" y="252" class="label section">Gateway</text>
    <text x="533" y="278" class="label muted tiny">production entry</text>
    <text x="642" y="210" class="label mono tiny">/api/*</text>
    <text x="642" y="235" class="label mono tiny">/socket.io/*</text>
    <text x="642" y="260" class="label mono tiny">web routes</text>
  </g>

  <g>
    <rect x="100" y="358" width="330" height="152" rx="22" fill="#FFFFFF" stroke="#E4D2C2" stroke-width="1.4"/>
    <rect x="128" y="386" width="86" height="30" rx="15" fill="#2D8A48"/>
    <text x="149" y="407" class="label chip inverse">:7002</text>
    <text x="128" y="448" class="label section">Frontend</text>
    <text x="128" y="476" class="label muted body">Next.js UI</text>
    <text x="128" y="504" class="label muted tiny">Rooms, conversation, settings</text>
  </g>

  <g>
    <rect x="850" y="358" width="330" height="152" rx="22" fill="#FFFFFF" stroke="#E4D2C2" stroke-width="1.4"/>
    <rect x="878" y="386" width="86" height="30" rx="15" fill="#B87933"/>
    <text x="899" y="407" class="label chip inverse">:7001</text>
    <text x="878" y="448" class="label section">Backend</text>
    <text x="878" y="476" class="label muted body">Express API + Socket.IO</text>
    <text x="878" y="504" class="label muted tiny">Rooms, agents, scenes, providers</text>
  </g>

  <g>
    <rect x="475" y="522" width="330" height="128" rx="24" fill="url(#engine-fill)"/>
    <text x="505" y="563" class="label section light">Council Engine</text>
    <text x="505" y="592" class="label body light-muted">Scene prompt builder</text>
    <text x="505" y="619" class="label body light-muted">A2A router + @mention</text>
    <circle cx="742" cy="586" r="34" fill="#FAF6F1"/>
    <path d="M753 568A21 21 0 1 0 753 604" stroke="#1A1410" stroke-width="10" stroke-linecap="round"/>
    <circle cx="774" cy="586" r="6" fill="#C43A2F"/>
  </g>

  <g>
    <rect x="100" y="574" width="292" height="94" rx="22" fill="#FFF9F3" stroke="#D8BFA9" stroke-width="1.4"/>
    <text x="128" y="613" class="label section">Local Data</text>
    <text x="128" y="642" class="label muted tiny">SQLite database + workspace files</text>
    <text x="286" y="613" class="label mono tiny warm">app.db</text>
  </g>

  <g>
    <rect x="888" y="574" width="292" height="94" rx="22" fill="#FFF9F3" stroke="#D8BFA9" stroke-width="1.4"/>
    <text x="916" y="613" class="label section">Local CLI</text>
    <text x="916" y="642" class="label muted tiny">Claude Code / OpenCode</text>
    <rect x="1066" y="596" width="82" height="30" rx="15" fill="#1A1410"/>
    <text x="1087" y="617" class="label chip inverse">spawn</text>
  </g>

  <path d="M370 228H505" stroke="#8C6A51" stroke-width="2.4" marker-end="url(#arrow)"/>
  <text x="407" y="213" class="label muted tiny">request</text>

  <path d="M575 296V326H265V358" stroke="#8C6A51" stroke-width="2.4" fill="none" marker-end="url(#arrow)"/>
  <text x="340" y="320" class="label muted tiny">web routes</text>

  <path d="M705 296V326H1015V358" stroke="#8C6A51" stroke-width="2.4" fill="none" marker-end="url(#arrow)"/>
  <text x="812" y="320" class="label muted tiny">API + sockets</text>

  <path d="M430 434H850" stroke="#C43A2F" stroke-width="2.8" marker-start="url(#arrow-red-start)" marker-end="url(#arrow-red)"/>
  <rect x="535" y="414" width="210" height="40" rx="20" fill="#FFFDF9" stroke="#E4D2C2" stroke-width="1.4"/>
  <text x="563" y="439" class="label chip accent">REST + Socket.IO</text>

  <path d="M1015 510V546H805" stroke="#8C6A51" stroke-width="2.4" fill="none" marker-end="url(#arrow)"/>

  <path d="M805 612H888" stroke="#8C6A51" stroke-width="2.4" marker-end="url(#arrow)"/>

  <path d="M475 612H392" stroke="#8C6A51" stroke-width="2.4" marker-end="url(#arrow)"/>

  <rect x="88" y="678" width="118" height="30" rx="15" fill="#FAF6F1" stroke="#E4D2C2" stroke-width="1.4"/>
  <text x="106" y="699" class="label chip warm">local-first</text>
</svg>
